{"title":"Star Trek Into Darkness 2013 HDRip XviD UNiQUE","uid":8831413,"size":1521615201,"categoryP":"video","categoryS":"movies","magnet":"?xt=urn:btih:e1490296dfbcdf8b54b6bd79d11f00a312487274&amp;dn=Star+Trek+Into+Darkness+2013+HDRip+XviD+UNiQUE&amp;tr=udp%3A%2F%2Ftracker.openbittorrent.com%3A80&amp;tr=udp%3A%2F%2Fopen.demonii.com%3A1337&amp;tr=udp%3A%2F%2Ftracker.coppersurfer.tk%3A6969&amp;tr=udp%3A%2F%2Fexodus.desync.com%3A6969","seeders":2,"leechers":2,"uploader":"srkfan","files":3,"time":1376991852,"description":"SilverTorrent - Clean And Verified Torrents Download\n &lt;a href=&quot;\nhttp://silvertorrent.me/torrent/142400/Star+Trek+Into+Darkness+2013+HDRip+XviD+UNiQUE&quot; rel=&quot;nofollow&quot; target=&quot;_NEW&quot;&gt;\nhttp://silvertorrent.me/torrent/142400/Star+Trek+Into+Darkness+2013+HDRip+XviD+UNiQUE&lt;/a&gt;\n------------------------------------------------------ &lt;a href=&quot;\nhttp://img401.imageshack.us/img401/8765/739c.jpg&quot; rel=&quot;nofollow&quot; target=&quot;_NEW&quot;&gt;\nhttp://img401.imageshack.us/img401/8765/739c.jpg&lt;/a&gt;\n &lt;a href=&quot;\nhttp://www.imdb.com/title/tt1408101/&quot; rel=&quot;nofollow&quot; target=&quot;_NEW&quot;&gt;\nhttp://www.imdb.com/title/tt1408101/&lt;/a&gt;\n\nFormat                                   : AVI\nFormat/Info                              : Audio Video Interleave\nFile size                                : 1.41 GiB\nDuration                                 : 2h 12mn\nOverall bit rate                         : 1 527 Kbps\nWriting application                      : VirtualDubMod 1.5.10.2 (build 2540/release)\nWriting library                          : VirtualDubMod build 2540/release\n\nVideo\nID                                       : 0\nFormat                                   : MPEG-4 Visual\nFormat profile                           : Advanced Simple@L5\nFormat settings, BVOP                    : 2\nFormat settings, QPel                    : No\nFormat settings, GMC                     : No warppoints\nFormat settings, Matrix                  : Default (H.263)\nMuxing mode                              : Packed bitstream\nCodec ID                                 : XVID\nCodec ID/Hint                            : XviD\nDuration                                 : 2h 12mn\nBit rate                                 : 1 134 Kbps\nWidth                                    : 720 pixels\nHeight                                   : 304 pixels\nDisplay aspect ratio                     : 2.35:1\nFrame rate                               : 23.976 fps\nColor space                              : YUV\nChroma subsampling                       : 4:2:0\nBit depth                                : 8 bits\nScan type                                : Progressive\nCompression mode                         : Lossy\nBits/(Pixel*Frame)                       : 0.216\nStream size                              : 1.05 GiB (74%)\nWriting library                          : XviD 64\n\nAudio\nID                                       : 1\nFormat                                   : AC-3\nFormat/Info                              : Audio Coding 3\nMode extension                           : CM (complete main)\nFormat settings, Endianness              : Big\nCodec ID                                 : 2000\nDuration                                 : 2h 12mn\nBit rate mode                            : Constant\nBit rate                                 : 384 Kbps\nChannel(s)                               : 6 channels\nChannel positions                        : Front: L C R, Side: L R, LFE\nSampling rate                            : 48.0 KHz\nBit depth                                : 16 bits\nCompression mode                         : Lossy\nStream size                              : 363 MiB (25%)\nAlignment                                : Split accross interleaves\nInterleave, duration                     : 42 ms (1.00 video frame)\nInterleave, preload duration             : 500 ms\n\n\nSource Used       1080p                - Thanks\n &lt;a href=&quot;\nhttp://img200.imageshack.us/img200/6618/ueo.png&quot; rel=&quot;nofollow&quot; target=&quot;_NEW&quot;&gt;\nhttp://img200.imageshack.us/img200/6618/ueo.png&lt;/a&gt; &lt;a href=&quot;\nhttp://img854.imageshack.us/img854/70/5kxf.png&quot; rel=&quot;nofollow&quot; target=&quot;_NEW&quot;&gt;\nhttp://img854.imageshack.us/img854/70/5kxf.png&lt;/a&gt;","torrent":{"xt":"urn:btih:e1490296dfbcdf8b54b6bd79d11f00a312487274","amp;dn":"Star+Trek+Into+Darkness+2013+HDRip+XviD+UNiQUE","amp;tr":["udp%3A%2F%2Ftracker.openbittorrent.com%3A80","udp%3A%2F%2Fopen.demonii.com%3A1337","udp%3A%2F%2Ftracker.coppersurfer.tk%3A6969","udp%3A%2F%2Fexodus.desync.com%3A6969"],"infoHash":"e1490296dfbcdf8b54b6bd79d11f00a312487274","infoHashBuffer":{"type":"Buffer","data":[225,73,2,150,223,188,223,139,84,182,189,121,209,31,0,163,18,72,114,116]},"announce":[],"urlList":[]}}